<svg width="60" height="60" viewBox="0 0 60 60" fill="none" xmlns="http://www.w3.org/2000/svg">
<path fill-rule="evenodd" clip-rule="evenodd" d="M59.051 6.81212C60.3589 9.37906 60.3589 12.7394 60.3589 19.46V41.0618C60.3589 47.7824 60.3589 51.1427 59.051 53.7096C57.9005 55.9676 56.0648 57.8034 53.8068 58.9538C51.2399 60.2618 47.8796 60.2618 41.1589 60.2618H19.5572C12.8365 60.2618 9.47623 60.2618 6.90929 58.9538C4.65135 57.8034 2.81558 55.9676 1.6651 53.7096C0.357178 51.1427 0.357178 47.7824 0.357178 41.0618V19.46C0.357178 12.7394 0.357178 9.37906 1.6651 6.81212C2.81558 4.55418 4.65135 2.71841 6.90929 1.56793C9.47623 0.26001 12.8365 0.26001 19.5572 0.26001H41.1589C47.8796 0.26001 51.2399 0.26001 53.8068 1.56793C56.0648 2.71841 57.9005 4.55418 59.051 6.81212ZM19.7776 14.0618H34.8924L47.2278 45.2438H40.9384L31.2023 19.3661H19.7776V14.0618ZM11.2278 39.9396H26.7044V45.2439H11.2278V39.9396Z" fill="#FF4017"/>
</svg>
